<svg xmlns="http://www.w3.org/2000/svg" xmlns:xlink="http://www.w3.org/1999/xlink" width="89pt" height="260pt" viewBox="0 0 89 260"><g id="graph0" class="graph" transform="scale(1 1) rotate(0) translate(4 256)"><title>g</title><polygon fill="#fff" stroke="transparent" points="-4 4 -4 -256 85 -256 85 4 -4 4"/><g id="node1" class="node"><title>a</title><ellipse cx="54" cy="-234" fill="none" stroke="#000" rx="27" ry="18"/><text x="54" y="-230.3" font-family="Times,serif" font-size="14" text-anchor="middle">a</text></g><g id="node2" class="node"><title>b</title><ellipse cx="27" cy="-162" fill="none" stroke="#000" rx="27" ry="18"/><text x="27" y="-158.3" font-family="Times,serif" font-size="14" text-anchor="middle">b</text></g><g id="edge1" class="edge"><title>a-&gt;b</title><path fill="none" stroke="#000" d="M47.6,-216.41C44.49,-208.34 40.67,-198.43 37.17,-189.35"/><polygon fill="#000" stroke="#000" points="40.4 -188.03 33.54 -179.96 33.87 -190.55 40.4 -188.03"/></g><g id="node3" class="node"><title>c</title><ellipse cx="27" cy="-90" fill="none" stroke="#000" rx="27" ry="18"/><text x="27" y="-86.3" font-family="Times,serif" font-size="14" text-anchor="middle">c</text></g><g id="edge2" class="edge"><title>b-&gt;c</title><path fill="none" stroke="#000" d="M27,-143.7C27,-135.98 27,-126.71 27,-118.11"/><polygon fill="#000" stroke="#000" points="30.5 -118.1 27 -108.1 23.5 -118.1 30.5 -118.1"/></g><g id="node4" class="node"><title>d</title><ellipse cx="54" cy="-18" fill="none" stroke="#000" rx="27" ry="18"/><text x="54" y="-14.3" font-family="Times,serif" font-size="14" text-anchor="middle">d</text></g><g id="edge3" class="edge"><title>c-&gt;d</title><path fill="none" stroke="#000" d="M33.4,-72.41C36.51,-64.34 40.33,-54.43 43.83,-45.35"/><polygon fill="#000" stroke="#000" points="47.13 -46.55 47.46 -35.96 40.6 -44.03 47.13 -46.55"/></g><g id="edge4" class="edge"><title>d-&gt;a</title><path fill="none" stroke="#000" d="M57.65,-36.09C59.68,-46.43 61.98,-59.91 63,-72 67.03,-119.83 67.03,-132.17 63,-180 62.28,-188.5 60.93,-197.69 59.49,-205.99"/><polygon fill="#000" stroke="#000" points="56.03 -205.44 57.65 -215.91 62.91 -206.71 56.03 -205.44"/></g></g></svg>